<svg id="visual" viewBox="0 0 900 100" width="900" height="100" xmlns="http://www.w3.org/2000/svg" xmlns:xlink="http://www.w3.org/1999/xlink" version="1.1"><path d="M0 67L11.5 67.3C23 67.7 46 68.3 69 67.7C92 67 115 65 138.2 66C161.3 67 184.7 71 207.8 72.3C231 73.7 254 72.3 277 69.2C300 66 323 61 346 59.5C369 58 392 60 415.2 62.5C438.3 65 461.7 68 484.8 70C508 72 531 73 554 71.2C577 69.3 600 64.7 623 62.5C646 60.3 669 60.7 692.2 63.3C715.3 66 738.7 71 761.8 70.7C785 70.3 808 64.7 831 62.3C854 60 877 61 888.5 61.5L900 62L900 0L888.5 0C877 0 854 0 831 0C808 0 785 0 761.8 0C738.7 0 715.3 0 692.2 0C669 0 646 0 623 0C600 0 577 0 554 0C531 0 508 0 484.8 0C461.7 0 438.3 0 415.2 0C392 0 369 0 346 0C323 0 300 0 277 0C254 0 231 0 207.8 0C184.7 0 161.3 0 138.2 0C115 0 92 0 69 0C46 0 23 0 11.5 0L0 0Z" fill="#ff77cd"></path><path d="M0 46L11.5 46.8C23 47.7 46 49.3 69 50.3C92 51.3 115 51.7 138.2 52.8C161.3 54 184.7 56 207.8 56.2C231 56.3 254 54.7 277 54.5C300 54.3 323 55.7 346 56.3C369 57 392 57 415.2 57.2C438.3 57.3 461.7 57.7 484.8 56.3C508 55 531 52 554 51.3C577 50.7 600 52.3 623 54.3C646 56.3 669 58.7 692.2 57.8C715.3 57 738.7 53 761.8 51.7C785 50.3 808 51.7 831 53C854 54.3 877 55.7 888.5 56.3L900 57L900 0L888.5 0C877 0 854 0 831 0C808 0 785 0 761.8 0C738.7 0 715.3 0 692.2 0C669 0 646 0 623 0C600 0 577 0 554 0C531 0 508 0 484.8 0C461.7 0 438.3 0 415.2 0C392 0 369 0 346 0C323 0 300 0 277 0C254 0 231 0 207.8 0C184.7 0 161.3 0 138.2 0C115 0 92 0 69 0C46 0 23 0 11.5 0L0 0Z" fill="#e473dd"></path><path d="M0 36L11.5 37.7C23 39.3 46 42.7 69 43.5C92 44.3 115 42.7 138.2 41.7C161.3 40.7 184.7 40.3 207.8 39.2C231 38 254 36 277 37C300 38 323 42 346 43.8C369 45.7 392 45.3 415.2 45C438.3 44.7 461.7 44.3 484.8 43C508 41.7 531 39.3 554 38.2C577 37 600 37 623 36.8C646 36.7 669 36.3 692.2 36.5C715.3 36.7 738.7 37.3 761.8 37C785 36.7 808 35.3 831 35.2C854 35 877 36 888.5 36.5L900 37L900 0L888.5 0C877 0 854 0 831 0C808 0 785 0 761.8 0C738.7 0 715.3 0 692.2 0C669 0 646 0 623 0C600 0 577 0 554 0C531 0 508 0 484.8 0C461.7 0 438.3 0 415.2 0C392 0 369 0 346 0C323 0 300 0 277 0C254 0 231 0 207.8 0C184.7 0 161.3 0 138.2 0C115 0 92 0 69 0C46 0 23 0 11.5 0L0 0Z" fill="#c073ec"></path><path d="M0 34L11.5 33.7C23 33.3 46 32.7 69 31.3C92 30 115 28 138.2 28.3C161.3 28.7 184.7 31.3 207.8 31.2C231 31 254 28 277 26.7C300 25.3 323 25.7 346 25.5C369 25.3 392 24.7 415.2 24.8C438.3 25 461.7 26 484.8 26.2C508 26.3 531 25.7 554 26.8C577 28 600 31 623 31.7C646 32.3 669 30.7 692.2 30.2C715.3 29.7 738.7 30.3 761.8 29.3C785 28.3 808 25.7 831 25.7C854 25.7 877 28.3 888.5 29.7L900 31L900 0L888.5 0C877 0 854 0 831 0C808 0 785 0 761.8 0C738.7 0 715.3 0 692.2 0C669 0 646 0 623 0C600 0 577 0 554 0C531 0 508 0 484.8 0C461.7 0 438.3 0 415.2 0C392 0 369 0 346 0C323 0 300 0 277 0C254 0 231 0 207.8 0C184.7 0 161.3 0 138.2 0C115 0 92 0 69 0C46 0 23 0 11.5 0L0 0Z" fill="#8f76f8"></path><path d="M0 19L11.5 18.5C23 18 46 17 69 16.5C92 16 115 16 138.2 15.8C161.3 15.7 184.7 15.3 207.8 14.5C231 13.7 254 12.3 277 12.8C300 13.3 323 15.7 346 17C369 18.3 392 18.7 415.2 17.8C438.3 17 461.7 15 484.8 15C508 15 531 17 554 17C577 17 600 15 623 15.3C646 15.7 669 18.3 692.2 18.5C715.3 18.7 738.7 16.3 761.8 16.2C785 16 808 18 831 19C854 20 877 20 888.5 20L900 20L900 0L888.5 0C877 0 854 0 831 0C808 0 785 0 761.8 0C738.7 0 715.3 0 692.2 0C669 0 646 0 623 0C600 0 577 0 554 0C531 0 508 0 484.8 0C461.7 0 438.3 0 415.2 0C392 0 369 0 346 0C323 0 300 0 277 0C254 0 231 0 207.8 0C184.7 0 161.3 0 138.2 0C115 0 92 0 69 0C46 0 23 0 11.5 0L0 0Z" fill="#3b79ff"></path></svg>