<svg id="visual" viewBox="0 0 900 200" width="900" height="200" xmlns="http://www.w3.org/2000/svg" xmlns:xlink="http://www.w3.org/1999/xlink" version="1.1"><path d="M0 108L11.5 104.7C23 101.3 46 94.7 69 89.8C92 85 115 82 138.2 83C161.3 84 184.7 89 207.8 90.7C231 92.3 254 90.7 277 91.3C300 92 323 95 346 93.2C369 91.3 392 84.7 415.2 82.7C438.3 80.7 461.7 83.3 484.8 88.3C508 93.3 531 100.7 554 104.2C577 107.7 600 107.3 623 103.8C646 100.3 669 93.7 692.2 90.7C715.3 87.7 738.7 88.3 761.8 89.8C785 91.3 808 93.7 831 95.5C854 97.3 877 98.7 888.5 99.3L900 100L900 201L888.5 201C877 201 854 201 831 201C808 201 785 201 761.8 201C738.7 201 715.3 201 692.2 201C669 201 646 201 623 201C600 201 577 201 554 201C531 201 508 201 484.8 201C461.7 201 438.3 201 415.2 201C392 201 369 201 346 201C323 201 300 201 277 201C254 201 231 201 207.8 201C184.7 201 161.3 201 138.2 201C115 201 92 201 69 201C46 201 23 201 11.5 201L0 201Z" fill="#4dabf7"></path><path d="M0 113L11.5 112.7C23 112.3 46 111.7 69 110.2C92 108.7 115 106.3 138.2 106.5C161.3 106.7 184.7 109.3 207.8 112C231 114.7 254 117.3 277 117.7C300 118 323 116 346 114.8C369 113.7 392 113.3 415.2 112.2C438.3 111 461.7 109 484.8 109.2C508 109.3 531 111.7 554 113.7C577 115.7 600 117.3 623 118.5C646 119.7 669 120.3 692.2 120.8C715.3 121.3 738.7 121.7 761.8 119.2C785 116.7 808 111.3 831 110.7C854 110 877 114 888.5 116L900 118L900 201L888.5 201C877 201 854 201 831 201C808 201 785 201 761.8 201C738.7 201 715.3 201 692.2 201C669 201 646 201 623 201C600 201 577 201 554 201C531 201 508 201 484.8 201C461.7 201 438.3 201 415.2 201C392 201 369 201 346 201C323 201 300 201 277 201C254 201 231 201 207.8 201C184.7 201 161.3 201 138.2 201C115 201 92 201 69 201C46 201 23 201 11.5 201L0 201Z" fill="#3a9efa"></path><path d="M0 138L11.5 136.8C23 135.7 46 133.3 69 132.3C92 131.3 115 131.7 138.2 130.8C161.3 130 184.7 128 207.8 128.8C231 129.7 254 133.3 277 133.7C300 134 323 131 346 129C369 127 392 126 415.2 127.8C438.3 129.7 461.7 134.3 484.8 134.5C508 134.7 531 130.3 554 128.2C577 126 600 126 623 128.8C646 131.7 669 137.3 692.2 137.7C715.3 138 738.7 133 761.8 131.5C785 130 808 132 831 131.8C854 131.7 877 129.3 888.5 128.2L900 127L900 201L888.5 201C877 201 854 201 831 201C808 201 785 201 761.8 201C738.7 201 715.3 201 692.2 201C669 201 646 201 623 201C600 201 577 201 554 201C531 201 508 201 484.8 201C461.7 201 438.3 201 415.2 201C392 201 369 201 346 201C323 201 300 201 277 201C254 201 231 201 207.8 201C184.7 201 161.3 201 138.2 201C115 201 92 201 69 201C46 201 23 201 11.5 201L0 201Z" fill="#328ffb"></path><path d="M0 143L11.5 142.8C23 142.7 46 142.3 69 145.3C92 148.3 115 154.7 138.2 157.7C161.3 160.7 184.7 160.3 207.8 159.7C231 159 254 158 277 157.2C300 156.3 323 155.7 346 155C369 154.3 392 153.7 415.2 152.3C438.3 151 461.7 149 484.8 147.7C508 146.3 531 145.7 554 148.2C577 150.7 600 156.3 623 156.5C646 156.7 669 151.3 692.2 149.7C715.3 148 738.7 150 761.8 150.5C785 151 808 150 831 148.7C854 147.3 877 145.7 888.5 144.8L900 144L900 201L888.5 201C877 201 854 201 831 201C808 201 785 201 761.8 201C738.7 201 715.3 201 692.2 201C669 201 646 201 623 201C600 201 577 201 554 201C531 201 508 201 484.8 201C461.7 201 438.3 201 415.2 201C392 201 369 201 346 201C323 201 300 201 277 201C254 201 231 201 207.8 201C184.7 201 161.3 201 138.2 201C115 201 92 201 69 201C46 201 23 201 11.5 201L0 201Z" fill="#3a7ff9"></path><path d="M0 179L11.5 178C23 177 46 175 69 174C92 173 115 173 138.2 173.8C161.3 174.7 184.7 176.3 207.8 176.8C231 177.3 254 176.7 277 175C300 173.3 323 170.7 346 168.8C369 167 392 166 415.2 167.7C438.3 169.3 461.7 173.7 484.8 175.3C508 177 531 176 554 174.7C577 173.3 600 171.7 623 171.7C646 171.7 669 173.3 692.2 174.3C715.3 175.3 738.7 175.7 761.8 174.2C785 172.7 808 169.3 831 167.5C854 165.7 877 165.3 888.5 165.2L900 165L900 201L888.5 201C877 201 854 201 831 201C808 201 785 201 761.8 201C738.7 201 715.3 201 692.2 201C669 201 646 201 623 201C600 201 577 201 554 201C531 201 508 201 484.8 201C461.7 201 438.3 201 415.2 201C392 201 369 201 346 201C323 201 300 201 277 201C254 201 231 201 207.8 201C184.7 201 161.3 201 138.2 201C115 201 92 201 69 201C46 201 23 201 11.5 201L0 201Z" fill="#4c6ef5"></path></svg>